<svg version="1.1" viewBox="0.0 0.0 960.4068241469816 589.4225721784777" fill="none" stroke="none" stroke-linecap="square" stroke-miterlimit="10" xmlns:xlink="http://www.w3.org/1999/xlink" xmlns="http://www.w3.org/2000/svg"><clipPath id="p.0"><path d="m0 0l960.4068 0l0 589.42255l-960.4068 0l0 -589.42255z" clip-rule="nonzero"/></clipPath><g clip-path="url(#p.0)"><path fill="#000000" fill-opacity="0.0" d="m0 0l960.4068 0l0 589.42255l-960.4068 0z" fill-rule="evenodd"/><path fill="#23395b" d="m385.8084 121.80341l0 0c0 -7.332054 5.9437866 -13.275856 13.275848 -13.275856l99.33804 0c3.5209656 0 6.8977356 1.3987045 9.387451 3.8884125c2.4897156 2.4897003 3.8883972 5.8664703 3.8883972 9.387444l0 53.10183c0 7.332062 -5.9437866 13.275864 -13.275848 13.275864l-99.33804 0c-7.332062 0 -13.275848 -5.943802 -13.275848 -13.275864z" fill-rule="evenodd"/><path stroke="#000000" stroke-width="1.0" stroke-linejoin="round" stroke-linecap="butt" d="m385.8084 121.80341l0 0c0 -7.332054 5.9437866 -13.275856 13.275848 -13.275856l99.33804 0c3.5209656 0 6.8977356 1.3987045 9.387451 3.8884125c2.4897156 2.4897003 3.8883972 5.8664703 3.8883972 9.387444l0 53.10183c0 7.332062 -5.9437866 13.275864 -13.275848 13.275864l-99.33804 0c-7.332062 0 -13.275848 -5.943802 -13.275848 -13.275864z" fill-rule="evenodd"/><path fill="#ffffff" d="m438.4257 156.00621q-0.390625 0 -0.609375 -0.328125q-0.203125 -0.328125 -0.328125 -0.890625l-1.09375 -4.796875q-0.09375 -0.515625 -0.21875 -1.296875q-0.109375 -0.796875 -0.21875 -1.640625q-0.09375 -0.859375 -0.1875 -1.609375q-0.078125 -0.75 -0.140625 -1.21875q-0.046875 -0.46875 -0.046875 -0.46875l-0.515625 -1.640625q-0.0625 -0.265625 0.015625 -0.375q0.09375 -0.109375 0.359375 -0.109375l1.140625 0l1.5 7.53125q0.1875 0.953125 0.296875 1.796875q0.125 0.828125 0.203125 1.5625q0.078125 0.734375 0.140625 1.421875l0.125 0q0.0625 -1.015625 0.203125 -2.28125q0.140625 -1.28125 0.328125 -2.5l1.359375 -7.75q0.046875 -0.25 0.125 -0.375q0.09375 -0.140625 0.328125 -0.140625l1.46875 0l-2.796875 15.0q-0.296875 0.015625 -0.5 0.046875q-0.203125 0.046875 -0.40625 0.046875q-0.203125 0.015625 -0.53125 0.015625zm-6.0625 -0.015625q-0.328125 0 -0.546875 -0.375q-0.21875 -0.375 -0.328125 -0.953125q-0.171875 -0.890625 -0.4375 -2.1875q-0.265625 -1.3125 -0.5625 -2.796875q-0.28125 -1.5 -0.546875 -2.953125q-0.265625 -1.46875 -0.5 -2.671875q-0.234375 -1.203125 -0.359375 -1.921875q-0.125 -0.71875 -0.125 -0.71875q-0.078125 -0.265625 -0.015625 -0.390625q0.078125 -0.125 0.375 -0.125l1.421875 0l1.53125 8.265625q0.171875 0.953125 0.28125 1.796875q0.125 0.84375 0.203125 1.578125q0.09375 0.734375 0.15625 1.421875l0.140625 0q0.0625 -1.28125 0.1875 -2.46875q0.140625 -1.1875 0.359375 -2.328125l1.296875 -7.015625q0.046875 -0.28125 0.125 -0.390625q0.078125 -0.125 0.328125 -0.125l0.75 0q0.34375 0 0.375 0.125q0.03125 0.125 -0.015625 0.359375l-0.578125 1.671875q0 0 -0.0625 0.46875q-0.046875 0.46875 -0.140625 1.203125q-0.078125 0.734375 -0.171875 1.578125q-0.09375 0.84375 -0.203125 1.640625q-0.09375 0.78125 -0.1875 1.296875l-1.171875 5.921875q-0.390625 0.046875 -0.71875 0.0625q-0.328125 0.03125 -0.859375 0.03125zm11.339294 -0.15625l0 -14.890625q0 -0.40625 0.140625 -0.5625q0.140625 -0.15625 0.515625 -0.1875q0.375 -0.03125 1.078125 -0.03125l0 5.625q0.484375 -0.421875 1.140625 -0.625q0.65625 -0.203125 1.25 -0.203125q0.921875 0 1.390625 0.328125q0.484375 0.328125 0.65625 0.953125q0.171875 0.609375 0.171875 1.53125l0 7.71875q0 0.171875 -0.09375 0.234375q-0.09375 0.0625 -0.46875 0.09375q-0.375 0.015625 -1.203125 0.015625l0 -7.59375q0 -0.703125 -0.234375 -1.1875q-0.21875 -0.5 -1.015625 -0.5q-0.359375 0 -0.78125 0.140625q-0.421875 0.125 -0.8125 0.453125l0 8.34375q0 0.171875 -0.078125 0.234375q-0.078125 0.0625 -0.4375 0.09375q-0.359375 0.015625 -1.21875 0.015625zm8.711975 0l0 -9.875q0 -0.40625 0.140625 -0.5625q0.15625 -0.15625 0.53125 -0.1875q0.390625 -0.046875 1.09375 -0.046875l0 10.328125q0 0.171875 -0.078125 0.234375q-0.0625 0.0625 -0.4375 0.09375q-0.359375 0.015625 -1.25 0.015625zm0.828125 -12.140625q-0.40625 -0.015625 -0.640625 -0.296875q-0.234375 -0.296875 -0.234375 -1.046875q0.03125 -0.578125 0.265625 -0.921875q0.234375 -0.359375 0.734375 -0.359375q0.5 0 0.6875 0.28125q0.1875 0.28125 0.171875 0.96875q0 0.640625 -0.25 1.015625q-0.234375 0.359375 -0.734375 0.359375zm5.7949524 12.359375q-0.890625 0 -1.328125 -0.390625q-0.4375 -0.40625 -0.5625 -1.109375q-0.125 -0.71875 -0.125 -1.6875l0 -6.203125l-1.453125 0q0 -0.6875 0 -0.984375q0.015625 -0.3125 0.09375 -0.40625q0.09375 -0.109375 0.265625 -0.109375l1.09375 0l0 -3.234375q0 -0.3125 0.140625 -0.421875q0.140625 -0.125 0.5 -0.140625q0.375 -0.03125 1.078125 -0.03125l0 3.828125l2.1875 0q0 0.671875 -0.015625 1.0q-0.015625 0.3125 -0.09375 0.40625q-0.0625 0.09375 -0.234375 0.09375l-1.84375 0l0 6.203125q0 0.453125 0.03125 0.84375q0.03125 0.390625 0.1875 0.625q0.171875 0.21875 0.546875 0.21875q0.375 0 0.640625 -0.0625q0.28125 -0.078125 0.609375 -0.25q0.03125 0.171875 0.078125 0.390625q0.046875 0.203125 0.046875 0.484375q0 0.375 -0.296875 0.578125q-0.28125 0.203125 -0.703125 0.28125q-0.40625 0.078125 -0.84375 0.078125zm6.0214233 0q-0.71875 0 -1.359375 -0.203125q-0.625 -0.203125 -1.09375 -0.734375q-0.453125 -0.546875 -0.703125 -1.515625q-0.234375 -0.984375 -0.234375 -2.546875q0 -2.0 0.3125 -3.21875q0.328125 -1.21875 0.859375 -1.828125q0.53125 -0.625 1.21875 -0.828125q0.6875 -0.21875 1.390625 -0.21875q1.34375 0 2.015625 0.859375q0.6875 0.84375 0.6875 2.578125q0 0.703125 -0.0625 1.453125q-0.046875 0.734375 -0.1875 1.3125q-0.734375 0.15625 -1.640625 0.21875q-0.890625 0.0625 -1.703125 0.09375q-0.796875 0.03125 -1.328125 0.03125q-0.515625 0 -0.515625 0l0.015625 -1.40625q0 0 0.40625 0.015625q0.40625 0 0.984375 0q0.59375 -0.015625 1.203125 -0.0625q0.609375 -0.0625 1.03125 -0.1875q0.0625 -0.296875 0.078125 -0.640625q0.03125 -0.34375 0.03125 -0.640625q-0.015625 -1.15625 -0.265625 -1.625q-0.25 -0.484375 -0.953125 -0.484375q-0.359375 0 -0.6875 0.203125q-0.328125 0.203125 -0.59375 0.703125q-0.25 0.5 -0.390625 1.375q-0.140625 0.875 -0.140625 2.234375q0 1.0 0.109375 1.671875q0.125 0.65625 0.375 1.015625q0.25 0.359375 0.609375 0.53125q0.375 0.15625 0.921875 0.15625q0.640625 0 1.265625 -0.171875q0.625 -0.171875 1.140625 -0.5q0.109375 0.265625 0.140625 0.59375q0.03125 0.328125 0.03125 0.59375q0 0.3125 -0.40625 0.59375q-0.40625 0.28125 -1.078125 0.421875q-0.671875 0.15625 -1.484375 0.15625z" fill-rule="nonzero"/><path fill="#000000" fill-opacity="0.0" d="m511.69815 148.35432l90.677155 65.322845" fill-rule="evenodd"/><path stroke="#000000" stroke-width="1.0" stroke-linejoin="round" stroke-linecap="butt" d="m511.69815 148.35432l90.677155 65.322845" fill-rule="evenodd"/><path fill="#000000" fill-opacity="0.0" d="m385.8084 148.35432l-84.53543 72.37796" fill-rule="evenodd"/><path stroke="#000000" stroke-width="1.0" stroke-linejoin="round" stroke-linecap="butt" d="m385.8084 148.35432l-84.53543 72.37796" fill-rule="evenodd"/><path fill="#000000" fill-opacity="0.0" d="m291.4252 366.1181l0 0" fill-rule="evenodd"/><path stroke="#000000" stroke-width="1.0" stroke-linejoin="round" stroke-linecap="butt" d="m291.4252 366.1181l0 0" fill-rule="evenodd"/><path fill="#000000" fill-opacity="0.0" d="m301.2651 300.3819l14.173218 49.13385" fill-rule="evenodd"/><path stroke="#000000" stroke-width="1.0" stroke-linejoin="round" stroke-linecap="butt" d="m301.2651 300.3819l14.173218 49.13385" fill-rule="evenodd"/><path fill="#000000" fill-opacity="0.0" d="m587.0551 349.58398l15.307068 -56.251953" fill-rule="evenodd"/><path stroke="#000000" stroke-width="1.0" stroke-linejoin="round" stroke-linecap="butt" d="m587.0551 349.58398l15.307068 -56.251953" fill-rule="evenodd"/><path fill="#000000" fill-opacity="0.0" d="m378.36746 389.3281l145.73227 0.09448242" fill-rule="evenodd"/><path stroke="#000000" stroke-width="1.0" stroke-linejoin="round" stroke-linecap="butt" d="m378.36746 389.3281l145.73227 0.09448242" fill-rule="evenodd"/><path fill="#23395b" d="m238.3202 234.0042l0 0c0 -7.3320465 5.943802 -13.275848 13.275864 -13.275848l99.33804 0c3.520996 0 6.8977356 1.3986969 9.387451 3.8884125c2.4897156 2.4897003 3.8883972 5.8664703 3.8883972 9.387436l0 53.101852c0 7.3320312 -5.9437866 13.275848 -13.275848 13.275848l-99.33804 0c-7.332062 0 -13.275864 -5.943817 -13.275864 -13.275848z" fill-rule="evenodd"/><path stroke="#000000" stroke-width="1.0" stroke-linejoin="round" stroke-linecap="butt" d="m238.3202 234.0042l0 0c0 -7.3320465 5.943802 -13.275848 13.275864 -13.275848l99.33804 0c3.520996 0 6.8977356 1.3986969 9.387451 3.8884125c2.4897156 2.4897003 3.8883972 5.8664703 3.8883972 9.387436l0 53.101852c0 7.3320312 -5.9437866 13.275848 -13.275848 13.275848l-99.33804 0c-7.332062 0 -13.275864 -5.943817 -13.275864 -13.275848z" fill-rule="evenodd"/><path fill="#ffffff" d="m285.22037 268.03513l0 -14.531265q0 -0.1875 0.109375 -0.296875q0.125 -0.109375 0.46875 -0.109375l2.109375 0q0.640625 0 1.28125 0.140625q0.640625 0.140625 1.140625 0.5q0.515625 0.34375 0.828125 0.984375q0.328125 0.640625 0.328125 1.6875153q0 1.171875 -0.328125 1.90625q-0.3125 0.71875 -0.78125 1.09375q-0.46875 0.375 -0.9375 0.4375q0.359375 0.015625 0.796875 0.15625q0.4375 0.140625 0.828125 0.46875q0.40625 0.328125 0.640625 0.9375q0.25 0.59375 0.25 1.546875q0 1.0625 -0.203125 1.90625q-0.203125 0.828125 -0.578125 1.421875q-0.375 0.59375 -0.890625 1.0q-0.5 0.390625 -1.109375 0.578125q-0.59375 0.171875 -1.265625 0.171875l-2.6875 0zm1.765625 -1.515625l0.953125 0q0.40625 0 0.75 -0.1875q0.359375 -0.1875 0.640625 -0.609375q0.28125 -0.421875 0.4375 -1.0625q0.15625 -0.640625 0.15625 -1.546875q0 -0.84375 -0.140625 -1.3125q-0.125 -0.484375 -0.40625 -0.71875q-0.265625 -0.25 -0.625 -0.3125q-0.359375 -0.078125 -0.78125 -0.078125l-0.984375 0l0 5.828125zm0 -7.3125l1.046875 0q0.453125 0 0.796875 -0.25q0.359375 -0.265625 0.5625 -0.8125q0.203125 -0.5625 0.203125 -1.40625q0 -0.87501526 -0.234375 -1.3281403q-0.21875 -0.453125 -0.59375 -0.609375q-0.359375 -0.15625 -0.75 -0.15625l-1.03125 0l0 4.5625153zm6.316284 8.828125l0 -14.89064q0 -0.40625 0.140625 -0.5625q0.140625 -0.15625 0.515625 -0.1875q0.390625 -0.03125 1.0625 -0.03125l0 15.32814q0 0.171875 -0.078125 0.234375q-0.0625 0.0625 -0.421875 0.09375q-0.34375 0.015625 -1.21875 0.015625zm6.377289 0.21875q-0.59375 0 -1.140625 -0.109375q-0.546875 -0.09375 -0.984375 -0.421875q-0.421875 -0.328125 -0.671875 -0.96875q-0.25 -0.640625 -0.25 -1.75q0 -1.109375 0.234375 -1.796875q0.234375 -0.703125 0.625 -1.0625q0.40625 -0.375 0.921875 -0.5q0.515625 -0.140625 1.046875 -0.140625q0.34375 0 0.796875 0.0625q0.46875 0.0625 0.78125 0.21875q0 0 0 -0.296875q0 -0.296875 0 -0.6875q0 -0.40625 0 -0.703125q0 -0.515625 -0.15625 -0.78125q-0.15625 -0.265625 -0.453125 -0.375q-0.28125 -0.125 -0.703125 -0.125q-0.84375 0 -1.609375 0.15625q-0.765625 0.140625 -1.234375 0.34375q-0.15625 -0.265625 -0.203125 -0.53125q-0.03125 -0.265625 -0.03125 -0.46875q0 -0.15625 0.046875 -0.328125q0.0625 -0.171875 0.1875 -0.25q0.28125 -0.171875 1.15625 -0.375q0.875 -0.203125 2.078125 -0.203125q1.390625 0 2.015625 0.578125q0.640625 0.578125 0.640625 2.015625l0 1.140625q0 1.21875 -0.015625 2.453125q-0.015625 1.21875 -0.03125 2.296875q-0.015625 1.0625 -0.078125 1.875q-0.4375 0.265625 -1.1875 0.5q-0.734375 0.234375 -1.78125 0.234375zm0.171875 -1.453125q0.34375 0 0.65625 -0.109375q0.3125 -0.109375 0.453125 -0.25q0.03125 -0.34375 0.046875 -0.9375q0.015625 -0.609375 0.015625 -1.265625q0.015625 -0.65625 0.015625 -1.234375q-0.21875 -0.109375 -0.5 -0.140625q-0.28125 -0.046875 -0.5 -0.046875q-0.34375 0 -0.640625 0.078125q-0.28125 0.0625 -0.5 0.296875q-0.203125 0.21875 -0.328125 0.640625q-0.125 0.421875 -0.125 1.125q0 0.578125 0.09375 0.953125q0.09375 0.359375 0.28125 0.5625q0.1875 0.203125 0.4375 0.265625q0.265625 0.0625 0.59375 0.0625zm7.550171 1.453125q-0.796875 0 -1.390625 -0.203125q-0.578125 -0.203125 -0.984375 -0.765625q-0.40625 -0.578125 -0.609375 -1.609375q-0.203125 -1.046875 -0.203125 -2.734375q0 -1.921875 0.34375 -3.078125q0.34375 -1.15625 0.90625 -1.734375q0.5625 -0.59375 1.234375 -0.78125q0.671875 -0.1875 1.34375 -0.1875q0.734375 0 1.25 0.265625q0.515625 0.265625 0.515625 0.6875q0 0.171875 -0.03125 0.4375q-0.03125 0.25 -0.140625 0.53125q-0.25 -0.15625 -0.65625 -0.265625q-0.40625 -0.125 -0.859375 -0.125q-0.359375 0 -0.734375 0.140625q-0.375 0.140625 -0.703125 0.5625q-0.3125 0.421875 -0.5 1.28125q-0.171875 0.859375 -0.171875 2.265625q0 1.125 0.109375 1.859375q0.125 0.734375 0.359375 1.15625q0.234375 0.421875 0.59375 0.59375q0.359375 0.15625 0.828125 0.15625q0.515625 0 0.96875 -0.15625q0.46875 -0.15625 0.75 -0.328125q0.078125 0.28125 0.109375 0.5q0.03125 0.21875 0.03125 0.4375q0 0.453125 -0.65625 0.78125q-0.65625 0.3125 -1.703125 0.3125zm3.795044 -0.21875l0 -14.89064q0 -0.40625 0.140625 -0.5625q0.140625 -0.15625 0.515625 -0.1875q0.390625 -0.03125 1.09375 -0.03125l0 5.7812653q0.53125 -0.453125 1.25 -0.71875q0.734375 -0.265625 1.40625 -0.265625q0.703125 0 1.09375 0.265625q0.40625 0.25 0.5625 0.671875q0.15625 0.40625 0.15625 0.890625q0 0.6875 -0.1875 1.21875q-0.1875 0.53125 -0.484375 0.953125q-0.296875 0.40625 -0.59375 0.703125q-0.28125 0.28125 -0.5 0.4375q0.515625 0.203125 0.953125 0.6875q0.453125 0.484375 0.765625 1.21875q0.3125 0.71875 0.390625 1.6875q0.046875 0.390625 0.03125 0.859375q0 0.453125 -0.078125 0.9375q-0.015625 0.171875 -0.109375 0.25q-0.078125 0.078125 -0.46875 0.09375q-0.390625 0 -1.375 0q0.078125 -0.796875 0.078125 -1.4375q0 -0.65625 -0.078125 -1.1875q-0.109375 -0.640625 -0.296875 -1.078125q-0.1875 -0.453125 -0.453125 -0.71875q-0.25 -0.265625 -0.546875 -0.359375q-0.28125 -0.109375 -0.578125 -0.03125q-0.203125 0.03125 -0.421875 0.140625q-0.21875 0.09375 -0.375 0.171875q-0.140625 0.078125 -0.140625 0.078125l0 4.078125q0 0.171875 -0.078125 0.234375q-0.078125 0.0625 -0.4375 0.09375q-0.34375 0.015625 -1.234375 0.015625zm1.75 -5.65625q0.734375 -0.3125 1.3125 -0.6875q0.578125 -0.390625 0.90625 -0.90625q0.34375 -0.53125 0.34375 -1.203125q0 -0.875 -0.796875 -0.875q-0.453125 0 -0.90625 0.25q-0.4375 0.25 -0.859375 0.78125l0 2.640625z" fill-rule="nonzero"/><path fill="#23395b" d="m539.4252 226.95695l0 0c0 -7.3320465 5.9438477 -13.275848 13.275879 -13.275848l99.33807 0c3.520935 0 6.897705 1.3986969 9.387451 3.8883972c2.489685 2.4897156 3.8883667 5.8664856 3.8883667 9.387451l0 53.10182c0 7.332062 -5.9437866 13.275879 -13.275818 13.275879l-99.33807 0c-7.3320312 0 -13.275879 -5.943817 -13.275879 -13.275879z" fill-rule="evenodd"/><path stroke="#000000" stroke-width="1.0" stroke-linejoin="round" stroke-linecap="butt" d="m539.4252 226.95695l0 0c0 -7.3320465 5.9438477 -13.275848 13.275879 -13.275848l99.33807 0c3.520935 0 6.897705 1.3986969 9.387451 3.8883972c2.489685 2.4897156 3.8883667 5.8664856 3.8883667 9.387451l0 53.10182c0 7.332062 -5.9437866 13.275879 -13.275818 13.275879l-99.33807 0c-7.3320312 0 -13.275879 -5.943817 -13.275879 -13.275879z" fill-rule="evenodd"/><path fill="#ffffff" d="m567.4392 260.98788l0 -14.14064q0 -0.40625 0.078125 -0.5625q0.09375 -0.15625 0.453125 -0.1875q0.375 -0.046875 1.234375 -0.046875l0 14.593765q0 0.171875 -0.09375 0.234375q-0.078125 0.0625 -0.4375 0.09375q-0.34375 0.015625 -1.234375 0.015625zm3.6356812 0l0 -10.156265q0.4375 -0.1875 1.0 -0.34375q0.578125 -0.171875 1.203125 -0.265625q0.625 -0.109375 1.1875 -0.109375q1.109375 0 1.765625 0.296875q0.671875 0.28125 0.953125 0.90625q0.28125 0.609375 0.28125 1.65625l0 7.6718903q0 0.171875 -0.09375 0.234375q-0.078125 0.0625 -0.453125 0.09375q-0.359375 0.015625 -1.25 0.015625l0 -7.5000153q0 -1.015625 -0.234375 -1.4375q-0.234375 -0.421875 -1.03125 -0.421875q-0.359375 0 -0.8125 0.09375q-0.4375 0.078125 -0.78125 0.28125l0 8.64064q0 0.171875 -0.078125 0.234375q-0.078125 0.0625 -0.4375 0.09375q-0.359375 0.015625 -1.21875 0.015625zm11.516968 0.21875q-0.703125 0 -1.328125 -0.171875q-0.609375 -0.15625 -1.109375 -0.671875q-0.484375 -0.53125 -0.75 -1.5625q-0.265625 -1.03125 -0.265625 -2.765625q0 -2.1093903 0.4375 -3.4218903q0.4375 -1.3125 1.171875 -1.90625q0.734375 -0.59375 1.65625 -0.59375q0.5 0 0.875 0.109375q0.390625 0.09375 0.640625 0.3125l0 -4.4375q0 -0.40625 0.140625 -0.5625q0.140625 -0.15625 0.515625 -0.1875q0.390625 -0.03125 1.078125 -0.03125l0 15.250015q-0.515625 0.25 -1.296875 0.4375q-0.78125 0.203125 -1.765625 0.203125zm0.078125 -1.5625q0.359375 0 0.671875 -0.078125q0.328125 -0.078125 0.578125 -0.234375l0 -7.4218903q-0.1875 -0.171875 -0.421875 -0.21875q-0.21875 -0.0625 -0.5625 -0.0625q-0.34375 0 -0.6875 0.171875q-0.328125 0.171875 -0.609375 0.625q-0.28125 0.453125 -0.4375 1.28125q-0.140625 0.8125 -0.140625 2.140625q0 1.2187653 0.109375 1.9687653q0.109375 0.734375 0.3125 1.140625q0.21875 0.390625 0.5 0.546875q0.296875 0.140625 0.6875 0.140625zm4.9229126 1.34375l0 -9.875015q0 -0.40625 0.140625 -0.5625q0.15625 -0.15625 0.53125 -0.1875q0.390625 -0.046875 1.09375 -0.046875l0 10.32814q0 0.171875 -0.078125 0.234375q-0.0625 0.0625 -0.4375 0.09375q-0.359375 0.015625 -1.25 0.015625zm0.828125 -12.14064q-0.40625 -0.015625 -0.640625 -0.296875q-0.234375 -0.296875 -0.234375 -1.046875q0.03125 -0.578125 0.265625 -0.921875q0.234375 -0.359375 0.734375 -0.359375q0.5 0 0.6875 0.28125q0.1875 0.28125 0.171875 0.96875q0 0.640625 -0.25 1.015625q-0.234375 0.359375 -0.734375 0.359375zm5.826233 16.343765q-1.4375 0 -2.1875 -0.375q-0.734375 -0.359375 -1.0 -0.890625q-0.25 -0.53125 -0.25 -1.0625q0 -0.75 0.421875 -1.375q0.4375 -0.625 1.078125 -1.109375q0.65625 -0.484375 1.375 -0.6875l0.640625 0.5q-0.40625 0.171875 -0.8125 0.546875q-0.40625 0.359375 -0.65625 0.796875q-0.25 0.453125 -0.25 0.921875q0 0.328125 0.125 0.59375q0.140625 0.265625 0.53125 0.40625q0.40625 0.140625 1.125 0.140625q1.15625 0 1.671875 -0.546875q0.515625 -0.546875 0.515625 -1.109375q0 -0.484375 -0.21875 -0.75q-0.21875 -0.265625 -0.75 -0.40625q-0.515625 -0.140625 -1.453125 -0.203125q-0.890625 -0.078125 -1.578125 -0.25q-0.671875 -0.171875 -1.0625 -0.46875q-0.375 -0.296875 -0.375 -0.734375q0.015625 -0.34375 0.21875 -0.703125q0.21875 -0.375 0.609375 -0.765625q0.40625 -0.40625 0.9375 -0.765625l1.0625 0.359375q-0.125 0.09375 -0.359375 0.3125q-0.234375 0.21875 -0.4375 0.484375q-0.1875 0.265625 -0.1875 0.5q0 0.28125 0.71875 0.421875q0.734375 0.125 1.796875 0.25q0.84375 0.125 1.46875 0.390625q0.640625 0.265625 1.0 0.765625q0.359375 0.484375 0.359375 1.328125q0 0.921875 -0.4375 1.71875q-0.421875 0.796875 -1.328125 1.28125q-0.890625 0.484375 -2.3125 0.484375zm0.25 -7.484375q-1.28125 0 -2.015625 -0.484375q-0.71875 -0.5 -1.015625 -1.3437653q-0.296875 -0.84375 -0.296875 -1.859375q0 -1.40625 0.453125 -2.265625q0.453125 -0.875 1.25 -1.25q0.8125 -0.390625 1.859375 -0.390625q0.234375 0 0.578125 0.0625q0.359375 0.0625 0.65625 0.171875l0.375 0.765625q0.734375 0.296875 1.171875 1.0q0.4375 0.703125 0.4375 1.859375q0 1.125 -0.359375 1.96875q-0.34375 0.82814026 -1.109375 1.2968903q-0.75 0.46875 -1.984375 0.46875zm0.09375 -1.328125q0.5625 0 0.921875 -0.3125q0.359375 -0.32814026 0.515625 -0.95314026q0.171875 -0.625 0.171875 -1.546875q0 -1.171875 -0.390625 -1.671875q-0.375 -0.5 -1.15625 -0.5q-0.453125 0 -0.84375 0.25q-0.375 0.234375 -0.59375 0.796875q-0.203125 0.5625 -0.203125 1.53125q0 0.75 0.109375 1.296875q0.125 0.53125 0.453125 0.82814026q0.34375 0.28125 1.015625 0.28125zm3.328125 -4.6093903q-0.328125 0 -0.78125 -0.109375q-0.4375 -0.125 -0.890625 -0.25q-0.453125 -0.140625 -0.734375 -0.25q-0.28125 -0.109375 -0.28125 -0.109375l-0.203125 -0.765625l3.3125 0q0.0625 0.109375 0.109375 0.3125q0.0625 0.203125 0.0625 0.5q0 0.359375 -0.171875 0.515625q-0.15625 0.15625 -0.421875 0.15625zm4.621765 9.437515q-0.71875 0 -1.359375 -0.203125q-0.625 -0.203125 -1.09375 -0.734375q-0.453125 -0.546875 -0.703125 -1.515625q-0.234375 -0.984375 -0.234375 -2.546875q0 -2.0000153 0.3125 -3.2187653q0.328125 -1.21875 0.859375 -1.828125q0.53125 -0.625 1.21875 -0.828125q0.6875 -0.21875 1.390625 -0.21875q1.34375 0 2.015625 0.859375q0.6875 0.84375 0.6875 2.578125q0 0.703125 -0.0625 1.453125q-0.046875 0.734375 -0.1875 1.3125153q-0.734375 0.15625 -1.640625 0.21875q-0.890625 0.0625 -1.703125 0.09375q-0.796875 0.03125 -1.328125 0.03125q-0.515625 0 -0.515625 0l0.015625 -1.4062653q0 0 0.40625 0.015625q0.40625 0 0.984375 0q0.59375 -0.015625 1.203125 -0.0625q0.609375 -0.0625 1.03125 -0.1875q0.0625 -0.296875 0.078125 -0.640625q0.03125 -0.34375 0.03125 -0.640625q-0.015625 -1.15625 -0.265625 -1.625q-0.25 -0.484375 -0.953125 -0.484375q-0.359375 0 -0.6875 0.203125q-0.328125 0.203125 -0.59375 0.703125q-0.25 0.5 -0.390625 1.375q-0.140625 0.875 -0.140625 2.2343903q0 1.0 0.109375 1.671875q0.125 0.65625 0.375 1.015625q0.25 0.359375 0.609375 0.53125q0.375 0.15625 0.921875 0.15625q0.640625 0 1.265625 -0.171875q0.625 -0.171875 1.140625 -0.5q0.109375 0.265625 0.140625 0.59375q0.03125 0.328125 0.03125 0.59375q0 0.3125 -0.40625 0.59375q-0.40625 0.28125 -1.078125 0.421875q-0.671875 0.15625 -1.484375 0.15625zm4.6000366 -0.21875l0 -10.156265q0.4375 -0.1875 1.0 -0.34375q0.578125 -0.171875 1.203125 -0.265625q0.625 -0.109375 1.1875 -0.109375q1.109375 0 1.765625 0.296875q0.671875 0.28125 0.953125 0.90625q0.28125 0.609375 0.28125 1.65625l0 7.6718903q0 0.171875 -0.09375 0.234375q-0.078125 0.0625 -0.453125 0.09375q-0.359375 0.015625 -1.25 0.015625l0 -7.5000153q0 -1.015625 -0.234375 -1.4375q-0.234375 -0.421875 -1.03125 -0.421875q-0.359375 0 -0.8125 0.09375q-0.4375 0.078125 -0.78125 0.28125l0 8.64064q0 0.171875 -0.078125 0.234375q-0.078125 0.0625 -0.4375 0.09375q-0.359375 0.015625 -1.21875 0.015625zm11.329468 0.21875q-0.8125 0 -1.4375 -0.203125q-0.625 -0.203125 -1.0625 -0.78125q-0.421875 -0.578125 -0.640625 -1.671875q-0.203125 -1.109375 -0.203125 -2.8906403q0 -2.921875 0.9375 -4.234375q0.9375 -1.3125 2.59375 -1.3125q1.140625 0 1.875 0.46875q0.734375 0.46875 1.09375 1.671875q0.359375 1.1875 0.359375 3.34375q0 2.9843903 -0.890625 4.2968903q-0.890625 1.3125 -2.625 1.3125zm0.046875 -1.484375q0.46875 0 0.8125 -0.328125q0.359375 -0.328125 0.5625 -1.21875q0.21875 -0.90625 0.21875 -2.5625153q0 -1.703125 -0.171875 -2.5625q-0.171875 -0.875 -0.5 -1.171875q-0.3125 -0.296875 -0.84375 -0.296875q-0.46875 0 -0.828125 0.328125q-0.359375 0.328125 -0.5625 1.234375q-0.203125 0.890625 -0.203125 2.546875q0 1.3125153 0.109375 2.1250153q0.109375 0.796875 0.28125 1.21875q0.1875 0.421875 0.484375 0.5625q0.296875 0.125 0.640625 0.125zm8.191284 1.484375q-1.28125 0 -1.96875 -0.375q-0.671875 -0.390625 -0.953125 -1.1875q-0.265625 -0.796875 -0.265625 -1.984375l0 -7.0000153q0 -0.171875 0.0625 -0.234375q0.078125 -0.0625 0.4375 -0.078125q0.375 -0.03125 1.28125 -0.03125l0 7.5000153q0 0.671875 0.109375 1.09375q0.125 0.421875 0.421875 0.609375q0.3125 0.171875 0.890625 0.171875q0.296875 0 0.703125 -0.078125q0.40625 -0.09375 0.75 -0.3125l0 -8.64064q0 -0.171875 0.078125 -0.234375q0.078125 -0.0625 0.421875 -0.078125q0.359375 -0.03125 1.234375 -0.03125l0 10.125015q-0.625 0.328125 -1.484375 0.546875q-0.84375 0.21875 -1.71875 0.21875zm7.390381 0q-1.125 0 -1.859375 -0.265625q-0.734375 -0.265625 -0.734375 -0.828125q0 -0.1875 0.0625 -0.453125q0.0625 -0.265625 0.234375 -0.546875q0.46875 0.28125 0.984375 0.40625q0.53125 0.125 1.15625 0.125q0.796875 0 1.25 -0.328125q0.46875 -0.328125 0.46875 -1.0q0 -0.421875 -0.1875 -0.828125q-0.171875 -0.40625 -0.65625 -0.828125l-2.078125 -1.7656403q-0.71875 -0.609375 -0.96875 -1.171875q-0.25 -0.5625 -0.25 -1.09375q0 -0.75 0.375 -1.3125q0.375 -0.5625 1.15625 -0.875q0.78125 -0.328125 1.953125 -0.328125q1.109375 0 1.671875 0.21875q0.5625 0.203125 0.78125 0.46875q0.234375 0.265625 0.234375 0.5q0 0.453125 -0.390625 0.875q-0.46875 -0.296875 -0.984375 -0.421875q-0.5 -0.125 -1.109375 -0.125q-0.765625 0 -1.21875 0.265625q-0.453125 0.265625 -0.453125 0.75q0 0.28125 0.15625 0.578125q0.15625 0.296875 0.6875 0.75l1.984375 1.59375q0.703125 0.67189026 0.984375 1.2656403q0.28125 0.59375 0.28125 1.40625q0 1.40625 -0.9375 2.1875q-0.9375 0.78125 -2.59375 0.78125z" fill-rule="nonzero"/><path fill="#23395b" d="m252.47769 362.77716l0 0c0 -7.3320312 5.9437866 -13.275848 13.275848 -13.275848l99.33804 0c3.520996 0 6.897766 1.3987122 9.387451 3.8883972c2.4897156 2.4897156 3.8884277 5.8664856 3.8884277 9.387451l0 53.101837c0 7.332062 -5.943817 13.275848 -13.275879 13.275848l-99.33804 0c-7.332062 0 -13.275848 -5.9437866 -13.275848 -13.275848z" fill-rule="evenodd"/><path stroke="#000000" stroke-width="1.0" stroke-linejoin="round" stroke-linecap="butt" d="m252.47769 362.77716l0 0c0 -7.3320312 5.9437866 -13.275848 13.275848 -13.275848l99.33804 0c3.520996 0 6.897766 1.3987122 9.387451 3.8883972c2.4897156 2.4897156 3.8884277 5.8664856 3.8884277 9.387451l0 53.101837c0 7.332062 -5.943817 13.275848 -13.275879 13.275848l-99.33804 0c-7.332062 0 -13.275848 -5.9437866 -13.275848 -13.275848z" fill-rule="evenodd"/><path fill="#ffffff" d="m298.6304 396.85495q-0.15625 0 -0.46875 -0.03125q-0.296875 -0.015625 -0.609375 -0.03125l3.796875 -14.671875q0.0625 -0.3125 0.65625 -0.3125q0.21875 0 0.4375 0.03125q0.21875 0.015625 0.375 0.03125l3.8125 14.625q0.046875 0.15625 -0.09375 0.265625q-0.140625 0.09375 -0.640625 0.09375q-0.203125 0 -0.453125 -0.015625q-0.234375 -0.015625 -0.578125 -0.03125l-2.0 -8.40625q-0.171875 -0.71875 -0.328125 -1.46875q-0.140625 -0.75 -0.265625 -1.4375q-0.109375 -0.6875 -0.15625 -1.203125q-0.046875 0.515625 -0.171875 1.203125q-0.109375 0.6875 -0.265625 1.4375q-0.140625 0.75 -0.328125 1.46875l-1.90625 8.109375q-0.03125 0.171875 -0.171875 0.265625q-0.125 0.078125 -0.640625 0.078125zm1.109375 -3.84375l0 -1.578125l5.109375 0l0 1.578125l-5.109375 0zm10.108612 4.015625q-1.125 0 -1.859375 -0.265625q-0.734375 -0.265625 -0.734375 -0.828125q0 -0.1875 0.0625 -0.453125q0.0625 -0.265625 0.234375 -0.546875q0.46875 0.28125 0.984375 0.40625q0.53125 0.125 1.15625 0.125q0.796875 0 1.25 -0.328125q0.46875 -0.328125 0.46875 -1.0q0 -0.421875 -0.1875 -0.828125q-0.171875 -0.40625 -0.65625 -0.828125l-2.078125 -1.765625q-0.71875 -0.609375 -0.96875 -1.171875q-0.25 -0.5625 -0.25 -1.09375q0 -0.75 0.375 -1.3125q0.375 -0.5625 1.15625 -0.875q0.78125 -0.328125 1.953125 -0.328125q1.109375 0 1.671875 0.21875q0.5625 0.203125 0.78125 0.46875q0.234375 0.265625 0.234375 0.5q0 0.453125 -0.390625 0.875q-0.46875 -0.296875 -0.984375 -0.421875q-0.5 -0.125 -1.109375 -0.125q-0.765625 0 -1.21875 0.265625q-0.453125 0.265625 -0.453125 0.75q0 0.28125 0.15625 0.578125q0.15625 0.296875 0.6875 0.75l1.984375 1.59375q0.703125 0.671875 0.984375 1.265625q0.28125 0.59375 0.28125 1.40625q0 1.40625 -0.9375 2.1875q-0.9375 0.78125 -2.59375 0.78125zm5.1082153 -0.21875l0 -9.875q0 -0.40625 0.140625 -0.5625q0.15625 -0.15625 0.53125 -0.1875q0.390625 -0.046875 1.09375 -0.046875l0 10.328125q0 0.171875 -0.078125 0.234375q-0.0625 0.0625 -0.4375 0.09375q-0.359375 0.015625 -1.25 0.015625zm0.828125 -12.140625q-0.40625 -0.015625 -0.640625 -0.296875q-0.234375 -0.296875 -0.234375 -1.046875q0.03125 -0.578125 0.265625 -0.921875q0.234375 -0.359375 0.734375 -0.359375q0.5 0 0.6875 0.28125q0.1875 0.28125 0.171875 0.96875q0 0.640625 -0.25 1.015625q-0.234375 0.359375 -0.734375 0.359375zm5.5918274 12.359375q-0.59375 0 -1.140625 -0.109375q-0.546875 -0.09375 -0.984375 -0.421875q-0.421875 -0.328125 -0.671875 -0.96875q-0.25 -0.640625 -0.25 -1.75q0 -1.109375 0.234375 -1.796875q0.234375 -0.703125 0.625 -1.0625q0.40625 -0.375 0.921875 -0.5q0.515625 -0.140625 1.046875 -0.140625q0.34375 0 0.796875 0.0625q0.46875 0.0625 0.78125 0.21875q0 0 0 -0.296875q0 -0.296875 0 -0.6875q0 -0.40625 0 -0.703125q0 -0.515625 -0.15625 -0.78125q-0.15625 -0.265625 -0.453125 -0.375q-0.28125 -0.125 -0.703125 -0.125q-0.84375 0 -1.609375 0.15625q-0.765625 0.140625 -1.234375 0.34375q-0.15625 -0.265625 -0.203125 -0.53125q-0.03125 -0.265625 -0.03125 -0.46875q0 -0.15625 0.046875 -0.328125q0.0625 -0.171875 0.1875 -0.25q0.28125 -0.171875 1.15625 -0.375q0.875 -0.203125 2.078125 -0.203125q1.390625 0 2.015625 0.578125q0.640625 0.578125 0.640625 2.015625l0 1.140625q0 1.21875 -0.015625 2.453125q-0.015625 1.21875 -0.03125 2.296875q-0.015625 1.0625 -0.078125 1.875q-0.4375 0.265625 -1.1875 0.5q-0.734375 0.234375 -1.78125 0.234375zm0.171875 -1.453125q0.34375 0 0.65625 -0.109375q0.3125 -0.109375 0.453125 -0.25q0.03125 -0.34375 0.046875 -0.9375q0.015625 -0.609375 0.015625 -1.265625q0.015625 -0.65625 0.015625 -1.234375q-0.21875 -0.109375 -0.5 -0.140625q-0.28125 -0.046875 -0.5 -0.046875q-0.34375 0 -0.640625 0.078125q-0.28125 0.0625 -0.5 0.296875q-0.203125 0.21875 -0.328125 0.640625q-0.125 0.421875 -0.125 1.125q0 0.578125 0.09375 0.953125q0.09375 0.359375 0.28125 0.5625q0.1875 0.203125 0.4375 0.265625q0.265625 0.0625 0.59375 0.0625zm4.659546 1.234375l0 -10.15625q0.4375 -0.1875 1.0 -0.34375q0.578125 -0.171875 1.203125 -0.265625q0.625 -0.109375 1.1875 -0.109375q1.109375 0 1.765625 0.296875q0.671875 0.28125 0.953125 0.90625q0.28125 0.609375 0.28125 1.65625l0 7.671875q0 0.171875 -0.09375 0.234375q-0.078125 0.0625 -0.453125 0.09375q-0.359375 0.015625 -1.25 0.015625l0 -7.5q0 -1.015625 -0.234375 -1.4375q-0.234375 -0.421875 -1.03125 -0.421875q-0.359375 0 -0.8125 0.09375q-0.4375 0.078125 -0.78125 0.28125l0 8.640625q0 0.171875 -0.078125 0.234375q-0.078125 0.0625 -0.4375 0.09375q-0.359375 0.015625 -1.21875 0.015625z" fill-rule="nonzero"/><path fill="#23395b" d="m524.1102 362.85983l0 0c0 -7.3320312 5.9437866 -13.275848 13.275879 -13.275848l99.33801 0c3.520996 0 6.897766 1.3987122 9.387451 3.8884277c2.489746 2.489685 3.8884277 5.866455 3.8884277 9.387421l0 53.101837c0 7.332062 -5.9437866 13.275848 -13.275879 13.275848l-99.33801 0c-7.3320923 0 -13.275879 -5.9437866 -13.275879 -13.275848z" fill-rule="evenodd"/><path stroke="#000000" stroke-width="1.0" stroke-linejoin="round" stroke-linecap="butt" d="m524.1102 362.85983l0 0c0 -7.3320312 5.9437866 -13.275848 13.275879 -13.275848l99.33801 0c3.520996 0 6.897766 1.3987122 9.387451 3.8884277c2.489746 2.489685 3.8884277 5.866455 3.8884277 9.387421l0 53.101837c0 7.332062 -5.9437866 13.275848 -13.275879 13.275848l-99.33801 0c-7.3320923 0 -13.275879 -5.9437866 -13.275879 -13.275848z" fill-rule="evenodd"/><path fill="#ffffff" d="m567.6192 396.89075l0 -14.4375q0 -0.234375 0.078125 -0.34375q0.09375 -0.109375 0.453125 -0.125q0.359375 -0.03125 1.21875 -0.03125l0 13.3125l3.65625 0l0 1.28125q0 0.21875 -0.09375 0.28125q-0.09375 0.0625 -0.234375 0.0625l-5.078125 0zm9.4470215 0.21875q-0.59375 0 -1.140625 -0.109375q-0.546875 -0.09375 -0.984375 -0.421875q-0.421875 -0.328125 -0.671875 -0.96875q-0.25 -0.640625 -0.25 -1.75q0 -1.109375 0.234375 -1.796875q0.234375 -0.703125 0.625 -1.0625q0.40625 -0.375 0.921875 -0.5q0.515625 -0.140625 1.046875 -0.140625q0.34375 0 0.796875 0.0625q0.46875 0.0625 0.78125 0.21875q0 0 0 -0.296875q0 -0.296875 0 -0.6875q0 -0.40625 0 -0.703125q0 -0.515625 -0.15625 -0.78125q-0.15625 -0.265625 -0.453125 -0.375q-0.28125 -0.125 -0.703125 -0.125q-0.84375 0 -1.609375 0.15625q-0.765625 0.140625 -1.234375 0.34375q-0.15625 -0.265625 -0.203125 -0.53125q-0.03125 -0.265625 -0.03125 -0.46875q0 -0.15625 0.046875 -0.328125q0.0625 -0.171875 0.1875 -0.25q0.28125 -0.171875 1.15625 -0.375q0.875 -0.203125 2.078125 -0.203125q1.390625 0 2.015625 0.578125q0.640625 0.578125 0.640625 2.015625l0 1.140625q0 1.21875 -0.015625 2.453125q-0.015625 1.21875 -0.03125 2.296875q-0.015625 1.0625 -0.078125 1.875q-0.4375 0.265625 -1.1875 0.5q-0.734375 0.234375 -1.78125 0.234375zm0.171875 -1.453125q0.34375 0 0.65625 -0.109375q0.3125 -0.109375 0.453125 -0.25q0.03125 -0.34375 0.046875 -0.9375q0.015625 -0.609375 0.015625 -1.265625q0.015625 -0.65625 0.015625 -1.234375q-0.21875 -0.109375 -0.5 -0.140625q-0.28125 -0.046875 -0.5 -0.046875q-0.34375 0 -0.640625 0.078125q-0.28125 0.0625 -0.5 0.296875q-0.203125 0.21875 -0.328125 0.640625q-0.125 0.421875 -0.125 1.125q0 0.578125 0.09375 0.953125q0.09375 0.359375 0.28125 0.5625q0.1875 0.203125 0.4375 0.265625q0.265625 0.0625 0.59375 0.0625zm7.45343 1.453125q-0.890625 0 -1.328125 -0.390625q-0.4375 -0.40625 -0.5625 -1.109375q-0.125 -0.71875 -0.125 -1.6875l0 -6.203125l-1.453125 0q0 -0.6875 0 -0.984375q0.015625 -0.3125 0.09375 -0.40625q0.09375 -0.109375 0.265625 -0.109375l1.09375 0l0 -3.234375q0 -0.3125 0.140625 -0.421875q0.140625 -0.125 0.5 -0.140625q0.375 -0.03125 1.078125 -0.03125l0 3.828125l2.1875 0q0 0.671875 -0.015625 1.0q-0.015625 0.3125 -0.09375 0.40625q-0.0625 0.09375 -0.234375 0.09375l-1.84375 0l0 6.203125q0 0.453125 0.03125 0.84375q0.03125 0.390625 0.1875 0.625q0.171875 0.21875 0.546875 0.21875q0.375 0 0.640625 -0.0625q0.28125 -0.078125 0.609375 -0.25q0.03125 0.171875 0.078125 0.390625q0.046875 0.203125 0.046875 0.484375q0 0.375 -0.296875 0.578125q-0.28125 0.203125 -0.703125 0.28125q-0.40625 0.078125 -0.84375 0.078125zm3.315918 -0.21875l0 -9.875q0 -0.40625 0.140625 -0.5625q0.15625 -0.15625 0.53125 -0.1875q0.390625 -0.046875 1.09375 -0.046875l0 10.328125q0 0.171875 -0.078125 0.234375q-0.0625 0.0625 -0.4375 0.09375q-0.359375 0.015625 -1.25 0.015625zm0.828125 -12.140625q-0.40625 -0.015625 -0.640625 -0.296875q-0.234375 -0.296875 -0.234375 -1.046875q0.03125 -0.578125 0.265625 -0.921875q0.234375 -0.359375 0.734375 -0.359375q0.5 0 0.6875 0.28125q0.1875 0.28125 0.171875 0.96875q0 0.640625 -0.25 1.015625q-0.234375 0.359375 -0.734375 0.359375zm3.1503906 12.140625l0 -10.15625q0.4375 -0.1875 1.0 -0.34375q0.578125 -0.171875 1.203125 -0.265625q0.625 -0.109375 1.1875 -0.109375q1.109375 0 1.765625 0.296875q0.671875 0.28125 0.953125 0.90625q0.28125 0.609375 0.28125 1.65625l0 7.671875q0 0.171875 -0.09375 0.234375q-0.078125 0.0625 -0.453125 0.09375q-0.359375 0.015625 -1.25 0.015625l0 -7.5q0 -1.015625 -0.234375 -1.4375q-0.234375 -0.421875 -1.03125 -0.421875q-0.359375 0 -0.8125 0.09375q-0.4375 0.078125 -0.78125 0.28125l0 8.640625q0 0.171875 -0.078125 0.234375q-0.078125 0.0625 -0.4375 0.09375q-0.359375 0.015625 -1.21875 0.015625zm11.329407 0.21875q-0.8125 0 -1.4375 -0.203125q-0.625 -0.203125 -1.0625 -0.78125q-0.421875 -0.578125 -0.640625 -1.671875q-0.203125 -1.109375 -0.203125 -2.890625q0 -2.921875 0.9375 -4.234375q0.9375 -1.3125 2.59375 -1.3125q1.140625 0 1.875 0.46875q0.734375 0.46875 1.09375 1.671875q0.359375 1.1875 0.359375 3.34375q0 2.984375 -0.890625 4.296875q-0.890625 1.3125 -2.625 1.3125zm0.046875 -1.484375q0.46875 0 0.8125 -0.328125q0.359375 -0.328125 0.5625 -1.21875q0.21875 -0.90625 0.21875 -2.5625q0 -1.703125 -0.171875 -2.5625q-0.171875 -0.875 -0.5 -1.171875q-0.3125 -0.296875 -0.84375 -0.296875q-0.46875 0 -0.828125 0.328125q-0.359375 0.328125 -0.5625 1.234375q-0.203125 0.890625 -0.203125 2.546875q0 1.3125 0.109375 2.125q0.109375 0.796875 0.28125 1.21875q0.1875 0.421875 0.484375 0.5625q0.296875 0.125 0.640625 0.125z" fill-rule="nonzero"/><path fill="#000000" fill-opacity="0.0" d="m306.17834 25.627296l290.11023 0l0 58.173225l-290.11023 0z" fill-rule="evenodd"/><path fill="#000000" d="m318.11584 47.566048q-0.125 0 -0.21875 -0.03125q0.15625 0.3125 0.15625 0.4375l0 5.65625q0.15625 0.25 0.90625 0.234375q0.75 -0.015625 1.78125 -0.109375q1.03125 -0.09375 2.1875 -0.296875q1.15625 -0.203125 2.15625 -0.375q1.0 -0.171875 1.65625 -0.296875q0.6875 -0.125 0.75 -0.0625q0.09375 0 0.359375 -0.015625q0.265625 -0.015625 0.578125 -0.03125q0.3125 -0.015625 0.5625 -0.03125q0.25 -0.015625 0.34375 -0.015625q0 0.75 -0.828125 1.21875q-0.828125 0.46875 -2.078125 0.71875q-1.25 0.25 -2.703125 0.390625q-1.453125 0.140625 -2.71875 0.234375q-1.265625 0.09375 -2.140625 0.21875q-0.90625 0.0625 -0.96875 0.3125q-0.1875 0.5 -0.265625 1.125q-0.078125 0.625 -0.09375 1.265625q-0.015625 0.640625 0 1.28125q0.015625 0.640625 0.015625 1.140625q0 0.125 0 0.4375q0 0.3125 0 0.640625q0 0.328125 0 0.625q0 0.296875 0 0.390625q0.125 0.3125 0.5625 0.46875q0.4375 0.15625 0.9375 0.203125q0.5 0.046875 0.9375 0.015625q0.5 -0.03125 0.6875 -0.03125q1.0625 0 2.125 -0.109375q1.0625 -0.109375 2.109375 -0.21875q1.046875 -0.109375 2.09375 -0.21875q1.046875 -0.109375 2.109375 -0.109375l0.1875 0q0.0625 0.03125 0.1875 0.0625q0.125 0.03125 0.265625 0.09375q0.140625 0.0625 0.234375 0.125q0.125 0.0625 0.1875 0.0625q0.0625 0.03125 0.1875 0.125q0.125 0.0625 0.125 0.125q0 0.59375 -0.65625 0.984375q-0.65625 0.390625 -1.65625 0.625q-1.0 0.234375 -2.1875 0.34375q-1.1875 0.109375 -2.28125 0.15625q-1.09375 0.046875 -1.875 0.046875q-0.78125 0 -1.0 0q-1.25 0 -2.203125 -0.21875q-0.953125 -0.21875 -1.59375 -0.734375q-0.640625 -0.515625 -0.953125 -1.390625q-0.3125 -0.9375 -0.3125 -2.25q0 -1.1875 0.171875 -2.375q0.171875 -1.1875 0.171875 -2.40625q0 -0.5 -0.15625 -0.84375q-0.15625 -0.34375 -0.15625 -0.75l0 -0.1875q0.0625 -0.0625 0.21875 -0.296875q0.15625 -0.234375 0.21875 -0.296875l0 -6.90625q0 -0.5 0.109375 -0.75q0.109375 -0.25 0.53125 -0.34375q0.421875 -0.09375 1.1875 -0.0625q0.765625 0.03125 2.09375 0.09375q1.328125 0.0625 3.265625 0.09375q2.0 0.03125 4.75 0q0.3125 0.125 0.625 0.265625q0.3125 0.140625 0.578125 0.359375q0.265625 0.21875 0.421875 0.5q0.15625 0.28125 0.15625 0.6875q0 0.09375 -0.109375 0.21875q-0.109375 0.125 -0.171875 0.09375l-1.5 -0.59375l-10.0625 0.28125zm18.09375 7.03125q-0.25 0 -0.875 0q-0.625 0 -1.296875 -0.109375q-0.671875 -0.109375 -1.21875 -0.359375q-0.546875 -0.25 -0.546875 -0.71875q0 -0.125 0.046875 -0.359375q0.046875 -0.234375 0.296875 -0.234375l3.21875 -0.28125q0.125 -1.15625 0.1875 -1.890625q0.0625 -0.734375 0.03125 -1.375q-0.03125 -0.640625 -0.078125 -1.34375q-0.046875 -0.703125 -0.078125 -1.828125q0 -0.21875 0.09375 -0.34375q0.09375 -0.125 0.234375 -0.1875q0.140625 -0.0625 0.3125 -0.09375q0.171875 -0.03125 0.265625 -0.03125q0.1875 0 0.390625 0.125q0.203125 0.125 0.359375 0.3125q0.15625 0.1875 0.25 0.390625q0.09375 0.203125 0.09375 0.390625l0.25 5.84375l2.6875 0.125q0.53125 -0.0625 0.984375 0.203125q0.453125 0.265625 0.484375 0.984375q-0.375 0.40625 -0.90625 0.484375q-0.53125 0.078125 -1.109375 0.0625q-0.578125 -0.015625 -1.140625 0q-0.5625 0.015625 -1.0 0.296875q0 0.1875 0.03125 1.03125q0.03125 0.84375 0.0625 2.0q0.03125 1.15625 0.078125 2.46875q0.046875 1.3125 0.078125 2.421875q0.03125 1.109375 0.046875 1.890625q0.015625 0.78125 0.015625 0.875q-0.71875 0.4375 -1.15625 -0.078125q-0.4375 -0.515625 -0.703125 -1.53125q-0.265625 -1.015625 -0.375 -2.375q-0.109375 -1.359375 -0.125 -2.6875q-0.015625 -1.328125 0.015625 -2.453125q0.03125 -1.125 0.09375 -1.625zm16.5 10.1875q0.0625 -0.8125 0.125 -1.6875q0.0625 -0.875 0.109375 -1.75q0.046875 -0.875 0.0625 -1.71875q0.015625 -0.84375 0.015625 -1.53125q0 -1.0 -0.28125 -1.90625q-0.28125 -0.90625 -0.8125 -1.578125q-0.53125 -0.671875 -1.328125 -1.0625q-0.796875 -0.390625 -1.890625 -0.390625q-0.4375 0 -0.75 0.0625q-0.3125 0.0625 -0.625 0.203125q-0.3125 0.140625 -0.6875 0.359375q-0.375 0.25 -0.875 0.59375q0 0.0625 -0.015625 0.234375q-0.015625 0.171875 -0.015625 0.203125q0 0.6875 0.140625 1.828125q0.140625 1.140625 0.296875 2.375q0.15625 1.234375 0.3125 2.390625q0.15625 1.15625 0.15625 1.875q0 0.0625 0 0.25q0 0.1875 -0.015625 0.40625q-0.015625 0.21875 -0.015625 0.40625q0 0.1875 0 0.28125q-0.1875 0.4375 -0.453125 0.546875q-0.265625 0.109375 -0.640625 0.109375q-0.375 0.0625 -0.5625 -0.53125q-0.1875 -0.59375 -0.28125 -1.71875q-0.09375 -1.125 -0.171875 -2.71875q-0.078125 -1.59375 -0.21875 -3.5q-0.140625 -1.90625 -0.40625 -4.046875q-0.265625 -2.140625 -0.765625 -4.390625q-0.25 -0.875 -0.390625 -1.484375q-0.140625 -0.609375 -0.265625 -1.09375q-0.125 -0.484375 -0.21875 -1.0q-0.09375 -0.515625 -0.21875 -1.234375l0 -0.125q0 -0.125 0.15625 -0.234375q0.15625 -0.109375 0.359375 -0.203125q0.203125 -0.09375 0.40625 -0.140625q0.203125 -0.046875 0.328125 -0.046875q0.59375 1.5625 0.953125 2.640625q0.359375 1.078125 0.578125 1.859375q0.21875 0.78125 0.3125 1.3125q0.09375 0.53125 0.15625 1.03125q0.0625 0.5 0.09375 1.03125q0.03125 0.53125 0.125 1.28125q1.625 -1.0 2.953125 -1.09375q1.328125 -0.09375 2.359375 0.390625q1.03125 0.484375 1.796875 1.484375q0.765625 1.0 1.265625 2.25q0.5 1.25 0.765625 2.65625q0.265625 1.40625 0.34375 2.71875q0.078125 1.3125 -0.0625 2.421875q-0.140625 1.109375 -0.421875 1.78125q-0.28125 0.671875 -0.75 0.78125q-0.46875 0.109375 -1.03125 -0.578125zm4.34375 -11.625q0 -0.28125 0.203125 -0.359375q0.203125 -0.078125 0.453125 -0.078125q0.1875 0 0.265625 0.09375q0.078125 0.09375 0.109375 0.21875q0.03125 0.125 0.09375 0.234375q0.0625 0.109375 0.21875 0.109375q0.4375 0 1.0625 -0.34375q0.625 -0.34375 1.359375 -0.75q0.734375 -0.40625 1.5625 -0.75q0.828125 -0.34375 1.640625 -0.34375q1.0625 0 1.953125 0.546875q0.890625 0.546875 1.59375 1.453125q0.703125 0.90625 1.203125 2.03125q0.5 1.125 0.84375 2.296875q0.34375 1.171875 0.5 2.28125q0.15625 1.109375 0.15625 1.921875q0 0.28125 -0.046875 0.84375q-0.046875 0.5625 -0.15625 1.125q-0.109375 0.5625 -0.359375 0.984375q-0.25 0.421875 -0.625 0.421875q-0.0625 0 -0.21875 -0.015625q-0.15625 -0.015625 -0.3125 -0.0625q-0.15625 -0.046875 -0.265625 -0.109375q-0.109375 -0.0625 -0.109375 -0.1875q0.28125 -2.40625 0 -4.515625q-0.28125 -2.109375 -0.90625 -3.703125q-0.625 -1.59375 -1.53125 -2.53125q-0.90625 -0.9375 -1.9375 -0.9375q-0.96875 0 -1.8125 0.3125q-0.84375 0.3125 -1.46875 0.90625q-0.625 0.59375 -0.984375 1.4375q-0.359375 0.84375 -0.359375 1.84375q0 1.0 0.1875 1.984375q0.1875 0.984375 0.421875 1.96875q0.234375 0.984375 0.421875 1.984375q0.1875 1.0 0.1875 2.0q-0.875 0 -1.46875 -0.71875q-0.59375 -0.71875 -0.953125 -1.84375q-0.359375 -1.125 -0.5625 -2.53125q-0.203125 -1.40625 -0.28125 -2.765625q-0.078125 -1.359375 -0.078125 -2.5625q0 -1.203125 0 -1.890625zm14.40625 5.8125q0 -1.71875 0.75 -3.0q0.75 -1.28125 1.96875 -2.15625q1.21875 -0.875 2.734375 -1.296875q1.515625 -0.421875 3.046875 -0.421875q0.8125 0 1.515625 0.296875q0.703125 0.296875 1.34375 0.8125q0.640625 0.515625 1.140625 1.1875q0.5 0.671875 0.859375 1.390625q0.359375 0.71875 0.546875 1.453125q0.1875 0.734375 0.1875 1.421875q0 1.59375 -0.625 2.84375q-0.625 1.25 -1.6875 2.109375q-1.0625 0.859375 -2.40625 1.3125q-1.34375 0.453125 -2.75 0.453125q-1.4375 0 -2.640625 -0.453125q-1.203125 -0.453125 -2.09375 -1.265625q-0.890625 -0.8125 -1.390625 -2.015625q-0.5 -1.203125 -0.5 -2.671875zm1.53125 -0.25q0 0.96875 0.359375 1.859375q0.359375 0.890625 1.0 1.546875q0.640625 0.65625 1.515625 1.046875q0.875 0.390625 1.875 0.390625q0.53125 0.0625 1.296875 -0.171875q0.765625 -0.234375 1.53125 -0.6875q0.765625 -0.453125 1.46875 -1.09375q0.703125 -0.640625 1.171875 -1.40625q0.46875 -0.765625 0.578125 -1.59375q0.109375 -0.828125 -0.28125 -1.65625q-0.390625 -0.828125 -1.421875 -1.59375q-1.03125 -0.765625 -2.84375 -1.421875q-1.03125 0 -2.140625 0.296875q-1.109375 0.296875 -2.015625 0.890625q-0.90625 0.59375 -1.5 1.5q-0.59375 0.90625 -0.59375 2.09375zm16.90625 6.625q-0.6875 -1.25 -1.1875 -2.71875q-0.5 -1.46875 -0.84375 -2.96875q-0.34375 -1.5 -0.546875 -2.921875q-0.203125 -1.421875 -0.265625 -2.578125q0 -0.21875 -0.03125 -0.484375q-0.03125 -0.265625 -0.015625 -0.546875q0.015625 -0.28125 0.09375 -0.53125q0.078125 -0.25 0.265625 -0.4375l0.0625 0q0.03125 0 0.03125 -0.015625q0 -0.015625 0.03125 -0.015625q0.03125 0 0.03125 0.015625q0 0.015625 0.0625 0.015625l0.0625 0q0.0625 0.03125 0.3125 0.125q0.25 0.09375 0.3125 0.15625q0.5625 -0.1875 1.15625 -0.453125q0.59375 -0.265625 1.203125 -0.5q0.609375 -0.234375 1.234375 -0.390625q0.625 -0.15625 1.21875 -0.15625q0.4375 0 0.765625 0.03125q0.328125 0.03125 0.65625 0.109375q0.328125 0.078125 0.703125 0.1875q0.375 0.109375 0.875 0.265625q0.25 0.1875 0.453125 0.359375q0.203125 0.171875 0.375 0.390625q0.171875 0.21875 0.265625 0.53125q0.09375 0.3125 0.09375 0.8125q-0.5 0.0625 -1.171875 -0.078125q-0.671875 -0.140625 -1.40625 -0.359375q-0.734375 -0.21875 -1.515625 -0.375q-0.78125 -0.15625 -1.5 -0.125q-0.71875 0.03125 -1.34375 0.40625q-0.65625 0.3125 -1.15625 1.125q-0.21875 0.90625 -0.1875 1.78125q0.03125 0.875 0.21875 1.703125q0.1875 0.828125 0.484375 1.65625q0.296875 0.828125 0.5625 1.65625q0.265625 0.828125 0.484375 1.640625q0.21875 0.8125 0.28125 1.65625q0 0.3125 -0.34375 0.671875q-0.34375 0.359375 -0.78125 0.359375zm8.25 -5.28125q0.03125 -0.53125 0.3125 -1.21875q0.28125 -0.6875 0.875 -1.34375q0.59375 -0.65625 1.5 -1.171875q0.90625 -0.515625 2.140625 -0.734375q1.234375 -0.21875 2.8125 -0.03125q1.578125 0.1875 3.515625 0.9375q0 -0.03125 0 -0.3125l-0.03125 -0.28125q0 -0.8125 -0.46875 -1.65625q-0.46875 -0.84375 -1.203125 -1.515625q-0.734375 -0.671875 -1.578125 -1.09375q-0.84375 -0.421875 -1.625 -0.421875q-0.3125 0 -0.546875 0.09375q-0.234375 0.09375 -0.453125 0.234375q-0.21875 0.140625 -0.421875 0.25q-0.203125 0.109375 -0.484375 0.109375q-0.0625 0 -0.0625 -0.03125q-0.03125 -0.03125 -0.0625 -0.0625q-0.0625 -0.0625 -0.171875 -0.15625q-0.109375 -0.09375 -0.109375 -0.125q0 -0.5625 0.203125 -0.96875q0.203125 -0.40625 0.5625 -0.65625q0.359375 -0.25 0.8125 -0.390625q0.453125 -0.140625 0.953125 -0.140625q1.25 0.125 2.390625 0.765625q1.140625 0.640625 2.09375 1.609375q0.953125 0.96875 1.671875 2.234375q0.71875 1.265625 1.203125 2.625q0.484375 1.359375 0.640625 2.734375q0.1875 1.4375 0.03125 2.6875q-0.03125 0 -0.1875 -0.015625q-0.15625 -0.015625 -0.34375 -0.03125q-0.1875 -0.015625 -0.3125 -0.046875l-0.15625 -0.03125q-0.65625 -1.46875 -1.46875 -2.375q-0.8125 -0.90625 -1.609375 -1.421875q-0.796875 -0.515625 -1.484375 -0.71875q-0.6875 -0.203125 -1.125 -0.296875q-0.46875 0 -1.109375 0.0625q-0.640625 0.0625 -1.328125 0.21875q-0.6875 0.15625 -1.390625 0.421875q-0.703125 0.265625 -1.25 0.640625q-0.546875 0.375 -0.875 0.890625q-0.328125 0.515625 -0.328125 1.203125q0 0.75 0.59375 1.265625q0.59375 0.515625 1.4375 0.84375q0.84375 0.328125 1.71875 0.453125q0.875 0.125 1.40625 0.125q0.875 0 1.71875 -0.09375q0.84375 -0.09375 1.671875 -0.21875q0.828125 -0.125 1.640625 -0.21875q0.8125 -0.09375 1.625 -0.09375q0.0625 0 0.21875 0q0.15625 0 0.328125 0.015625q0.171875 0.015625 0.3125 0.015625q0.140625 0 0.203125 0q0.25 0.09375 0.28125 0.28125q0.03125 0.1875 0.03125 0.375q0 0.1875 -0.390625 0.40625q-0.390625 0.21875 -1.015625 0.4375q-0.625 0.21875 -1.390625 0.453125q-0.765625 0.234375 -1.46875 0.390625q-0.703125 0.15625 -1.3125 0.265625q-0.609375 0.109375 -0.859375 0.109375q-1.3125 0 -2.78125 -0.21875q-1.46875 -0.21875 -2.6875 -0.796875q-1.21875 -0.578125 -2.015625 -1.609375q-0.796875 -1.03125 -0.796875 -2.65625zm16.1875 -1.6875q0 -1.375 0.53125 -2.671875q0.53125 -1.296875 1.453125 -2.296875q0.921875 -1.0 2.140625 -1.59375q1.21875 -0.59375 2.59375 -0.59375q0.625 0 1.328125 0.140625q0.703125 0.140625 1.328125 0.453125q0.625 0.3125 1.03125 0.828125q0.40625 0.515625 0.40625 1.296875q0 0.125 -0.078125 0.5q-0.078125 0.375 -0.203125 0.75q-0.125 0.375 -0.296875 0.671875q-0.171875 0.296875 -0.296875 0.296875q0 -1.46875 -0.8125 -2.453125q-0.8125 -0.984375 -2.375 -0.984375q-1.1875 0 -2.125 0.5q-0.9375 0.5 -1.5625 1.3125q-0.625 0.8125 -0.953125 1.828125q-0.328125 1.015625 -0.328125 2.078125q0 1.4375 0.46875 2.375q0.46875 0.9375 1.28125 1.515625q0.8125 0.578125 1.875 0.859375q1.0625 0.28125 2.25 0.375q1.1875 0.09375 2.375 0.0625q1.1875 -0.03125 2.28125 -0.09375q0.09375 0 0.3125 0.125q0.21875 0.125 0.3125 0.15625l0 0.09375q0 0.0625 0.015625 0.0625q0.015625 0 0.015625 0.03125q0 0.34375 -0.34375 0.59375q-0.34375 0.25 -0.84375 0.40625q-0.5 0.15625 -1.09375 0.21875q-0.59375 0.0625 -1.171875 0.109375q-0.578125 0.046875 -1.015625 0.046875q-0.4375 0 -0.625 0q-1.8125 0 -3.265625 -0.40625q-1.453125 -0.40625 -2.46875 -1.265625q-1.015625 -0.859375 -1.578125 -2.1875q-0.5625 -1.328125 -0.5625 -3.140625zm15.75 -3.84375q0 -0.125 0 -0.46875q0 -0.34375 0.015625 -0.71875q0.015625 -0.375 0.015625 -0.71875q0 -0.34375 0 -0.46875q-0.125 -0.96875 0.5625 -0.96875q0.3125 0 0.53125 0.15625q0.21875 0.15625 0.40625 0.46875q-0.09375 1.625 0.140625 3.140625q0.234375 1.515625 0.53125 3.0q0.296875 1.484375 0.5625 2.984375q0.265625 1.5 0.265625 3.125q0 0.4375 -0.265625 0.875q-0.265625 0.4375 -0.796875 0.4375q-0.40625 0 -0.703125 -0.703125q-0.296875 -0.703125 -0.515625 -1.78125q-0.21875 -1.078125 -0.375 -2.390625q-0.15625 -1.3125 -0.234375 -2.515625q-0.078125 -1.203125 -0.109375 -2.15625q-0.03125 -0.953125 -0.03125 -1.296875zm-1.59375 -7.84375q0 -0.375 0.21875 -0.484375q0.21875 -0.109375 0.5625 -0.109375q0.21875 -0.03125 0.578125 0.265625q0.359375 0.296875 0.59375 0.671875q0.234375 0.375 0.265625 0.6875q0.03125 0.375 -0.46875 0.4375l-0.15625 0q-0.46875 0 -0.78125 -0.0625q-0.3125 -0.0625 -0.484375 -0.203125q-0.171875 -0.140625 -0.25 -0.421875q-0.078125 -0.28125 -0.078125 -0.78125zm5.8125 13.375q0.03125 -0.53125 0.3125 -1.21875q0.28125 -0.6875 0.875 -1.34375q0.59375 -0.65625 1.5 -1.171875q0.90625 -0.515625 2.140625 -0.734375q1.234375 -0.21875 2.8125 -0.03125q1.578125 0.1875 3.515625 0.9375q0 -0.03125 0 -0.3125l-0.03125 -0.28125q0 -0.8125 -0.46875 -1.65625q-0.46875 -0.84375 -1.203125 -1.515625q-0.734375 -0.671875 -1.578125 -1.09375q-0.84375 -0.421875 -1.625 -0.421875q-0.3125 0 -0.546875 0.09375q-0.234375 0.09375 -0.453125 0.234375q-0.21875 0.140625 -0.421875 0.25q-0.203125 0.109375 -0.484375 0.109375q-0.0625 0 -0.0625 -0.03125q-0.03125 -0.03125 -0.0625 -0.0625q-0.0625 -0.0625 -0.171875 -0.15625q-0.109375 -0.09375 -0.109375 -0.125q0 -0.5625 0.203125 -0.96875q0.203125 -0.40625 0.5625 -0.65625q0.359375 -0.25 0.8125 -0.390625q0.453125 -0.140625 0.953125 -0.140625q1.25 0.125 2.390625 0.765625q1.140625 0.640625 2.09375 1.609375q0.953125 0.96875 1.671875 2.234375q0.71875 1.265625 1.203125 2.625q0.484375 1.359375 0.640625 2.734375q0.1875 1.4375 0.03125 2.6875q-0.03125 0 -0.1875 -0.015625q-0.15625 -0.015625 -0.34375 -0.03125q-0.1875 -0.015625 -0.3125 -0.046875l-0.15625 -0.03125q-0.65625 -1.46875 -1.46875 -2.375q-0.8125 -0.90625 -1.609375 -1.421875q-0.796875 -0.515625 -1.484375 -0.71875q-0.6875 -0.203125 -1.125 -0.296875q-0.46875 0 -1.109375 0.0625q-0.640625 0.0625 -1.328125 0.21875q-0.6875 0.15625 -1.390625 0.421875q-0.703125 0.265625 -1.25 0.640625q-0.546875 0.375 -0.875 0.890625q-0.328125 0.515625 -0.328125 1.203125q0 0.75 0.59375 1.265625q0.59375 0.515625 1.4375 0.84375q0.84375 0.328125 1.71875 0.453125q0.875 0.125 1.40625 0.125q0.875 0 1.71875 -0.09375q0.84375 -0.09375 1.671875 -0.21875q0.828125 -0.125 1.640625 -0.21875q0.8125 -0.09375 1.625 -0.09375q0.0625 0 0.21875 0q0.15625 0 0.328125 0.015625q0.171875 0.015625 0.3125 0.015625q0.140625 0 0.203125 0q0.25 0.09375 0.28125 0.28125q0.03125 0.1875 0.03125 0.375q0 0.1875 -0.390625 0.40625q-0.390625 0.21875 -1.015625 0.4375q-0.625 0.21875 -1.390625 0.453125q-0.765625 0.234375 -1.46875 0.390625q-0.703125 0.15625 -1.3125 0.265625q-0.609375 0.109375 -0.859375 0.109375q-1.3125 0 -2.78125 -0.21875q-1.46875 -0.21875 -2.6875 -0.796875q-1.21875 -0.578125 -2.015625 -1.609375q-0.796875 -1.03125 -0.796875 -2.65625zm16.875 5.03125q-0.3125 -2.21875 -0.390625 -4.421875q-0.078125 -2.203125 -0.078125 -4.421875q0 -2.21875 0.0625 -4.40625q0.0625 -2.1875 0.03125 -4.375q0 -0.25 0.1875 -0.34375q0.1875 -0.09375 0.4375 -0.09375q0.28125 0 0.5 0.203125q0.21875 0.203125 0.375 0.5q0.15625 0.296875 0.234375 0.59375q0.078125 0.296875 0.078125 0.484375q0.1875 4.46875 0.25 7.453125q0.0625 2.984375 0 4.8125q-0.0625 1.828125 -0.203125 2.703125q-0.140625 0.875 -0.359375 1.1875q-0.21875 0.3125 -0.515625 0.25q-0.296875 -0.0625 -0.609375 -0.125zm24.1875 0.25q-0.4375 -0.78125 -0.734375 -2.015625q-0.296875 -1.234375 -0.5 -2.578125q-0.203125 -1.34375 -0.328125 -2.53125q-0.125 -1.1875 -0.25 -1.875l0 -5.375q0 -0.34375 0.28125 -0.640625q0.28125 -0.296875 0.625 -0.296875q0.0625 0 0.15625 0q0.09375 0 0.125 0q0.125 0.84375 0.1875 1.734375q0.0625 0.890625 0.109375 1.765625q0.046875 0.875 0.203125 1.75q0.125 0.875 0.40625 1.6875q0.5 0.125 1.09375 0.1875q0.5625 0 1.3125 0.0625q0.8125 0 1.765625 -0.265625q0.953125 -0.265625 1.765625 -0.765625q0.8125 -0.5 1.359375 -1.234375q0.546875 -0.734375 0.546875 -1.640625q0 -1.0 -0.65625 -1.765625q-0.65625 -0.765625 -1.6875 -1.359375q-1.03125 -0.59375 -2.28125 -1.03125q-1.25 -0.4375 -2.453125 -0.703125q-1.203125 -0.265625 -2.234375 -0.390625q-1.03125 -0.125 -1.59375 -0.125q-0.1875 0 -0.6875 -0.03125q-0.5 -0.03125 -1.109375 -0.015625q-0.609375 0.015625 -1.171875 0.078125q-0.5625 0.0625 -0.875 0.25q-0.28125 0.15625 -0.515625 0.5625q-0.234375 0.40625 -0.453125 0.828125q-0.21875 0.421875 -0.453125 0.734375q-0.234375 0.3125 -0.515625 0.3125l-0.0625 0q-0.03125 0 -0.09375 -0.03125q-0.0625 -0.03125 -0.09375 -0.09375q-0.03125 -0.0625 -0.078125 -0.3125q-0.046875 -0.25 -0.078125 -0.71875q-0.03125 -0.46875 -0.03125 -1.28125q0 -0.34375 0.328125 -0.640625q0.328125 -0.296875 0.875 -0.515625q0.546875 -0.21875 1.171875 -0.390625q0.625 -0.171875 1.203125 -0.28125q0.578125 -0.109375 1.03125 -0.171875q0.453125 -0.0625 0.609375 -0.0625q1.0625 0 2.484375 0.125q1.421875 0.125 2.9375 0.453125q1.515625 0.328125 3.0 0.875q1.484375 0.546875 2.640625 1.34375q1.15625 0.796875 1.90625 1.921875q0.71875 1.09375 0.71875 2.59375q0.15625 1.0625 -0.375 1.953125q-0.53125 0.890625 -1.453125 1.59375q-0.921875 0.703125 -2.078125 1.21875q-1.15625 0.515625 -2.25 0.8125q-1.09375 0.296875 -1.96875 0.375q-0.875 0.078125 -1.21875 -0.078125l0 0.28125q0 1.09375 0.1875 2.15625q0.1875 1.0625 0.1875 2.15625q0 0.125 -0.03125 0.390625q-0.03125 0.265625 -0.140625 0.515625q-0.109375 0.25 -0.28125 0.40625q-0.171875 0.15625 -0.484375 0.09375zm11.0625 -8.375q0 -1.625 0.484375 -3.109375q0.484375 -1.484375 1.40625 -2.609375q0.921875 -1.125 2.25 -1.796875q1.328125 -0.671875 3.078125 -0.671875q1.03125 0.125 1.796875 0.5625q0.765625 0.4375 1.25 1.078125q0.484375 0.640625 0.703125 1.484375q0.1875 0.8125 0.1875 1.75q0 1.125 -0.65625 2.03125q-0.65625 0.90625 -1.65625 1.515625q-1.0 0.609375 -2.15625 0.9375q-1.15625 0.328125 -2.15625 0.328125q-0.375 0 -0.765625 0q-0.390625 0 -0.703125 -0.125q-0.3125 -0.125 -0.5 -0.375q-0.1875 -0.25 -0.1875 -0.75q0 -0.15625 0.046875 -0.265625q0.046875 -0.109375 0.265625 -0.15625q0.21875 -0.046875 0.65625 -0.015625q0.4375 0.0625 1.1875 0.1875q0.4375 0 1.265625 -0.296875q0.828125 -0.296875 1.6875 -0.765625q0.859375 -0.46875 1.484375 -1.078125q0.625 -0.609375 0.625 -1.203125q0 -0.625 -0.203125 -1.234375q-0.203125 -0.609375 -0.609375 -1.078125q-0.40625 -0.46875 -0.953125 -0.75q-0.546875 -0.28125 -1.234375 -0.21875q-1.09375 0.09375 -1.984375 0.59375q-0.890625 0.5 -1.515625 1.296875q-0.625 0.796875 -0.96875 1.765625q-0.34375 0.96875 -0.34375 2.03125q0 0.8125 0.03125 1.625q0.03125 0.8125 0.234375 1.59375q0.203125 0.78125 0.65625 1.5q0.453125 0.71875 1.3125 1.265625q0.859375 0.546875 2.171875 0.90625q1.3125 0.359375 3.25 0.453125l5.59375 -0.375q-0.5 0.6875 -1.265625 1.125q-0.765625 0.4375 -1.625 0.703125q-0.859375 0.265625 -1.703125 0.390625q-0.84375 0.125 -1.59375 0.125q-1.8125 0 -3.40625 -0.59375q-1.59375 -0.59375 -2.8125 -1.671875q-1.21875 -1.078125 -1.921875 -2.625q-0.703125 -1.546875 -0.703125 -3.484375zm16.8125 -3.8125q0 -0.28125 0.203125 -0.359375q0.203125 -0.078125 0.453125 -0.078125q0.1875 0 0.265625 0.09375q0.078125 0.09375 0.109375 0.21875q0.03125 0.125 0.09375 0.234375q0.0625 0.109375 0.21875 0.109375q0.4375 0 1.0625 -0.34375q0.625 -0.34375 1.359375 -0.75q0.734375 -0.40625 1.5625 -0.75q0.828125 -0.34375 1.640625 -0.34375q1.0625 0 1.953125 0.546875q0.890625 0.546875 1.59375 1.453125q0.703125 0.90625 1.203125 2.03125q0.5 1.125 0.84375 2.296875q0.34375 1.171875 0.5 2.28125q0.15625 1.109375 0.15625 1.921875q0 0.28125 -0.046875 0.84375q-0.046875 0.5625 -0.15625 1.125q-0.109375 0.5625 -0.359375 0.984375q-0.25 0.421875 -0.625 0.421875q-0.0625 0 -0.21875 -0.015625q-0.15625 -0.015625 -0.3125 -0.0625q-0.15625 -0.046875 -0.265625 -0.109375q-0.109375 -0.0625 -0.109375 -0.1875q0.28125 -2.40625 0 -4.515625q-0.28125 -2.109375 -0.90625 -3.703125q-0.625 -1.59375 -1.53125 -2.53125q-0.90625 -0.9375 -1.9375 -0.9375q-0.96875 0 -1.8125 0.3125q-0.84375 0.3125 -1.46875 0.90625q-0.625 0.59375 -0.984375 1.4375q-0.359375 0.84375 -0.359375 1.84375q0 1.0 0.1875 1.984375q0.1875 0.984375 0.421875 1.96875q0.234375 0.984375 0.421875 1.984375q0.1875 1.0 0.1875 2.0q-0.875 0 -1.46875 -0.71875q-0.59375 -0.71875 -0.953125 -1.84375q-0.359375 -1.125 -0.5625 -2.53125q-0.203125 -1.40625 -0.28125 -2.765625q-0.078125 -1.359375 -0.078125 -2.5625q0 -1.203125 0 -1.890625zm18.0625 1.4375q-0.25 0 -0.875 0q-0.625 0 -1.296875 -0.109375q-0.671875 -0.109375 -1.21875 -0.359375q-0.546875 -0.25 -0.546875 -0.71875q0 -0.125 0.046875 -0.359375q0.046875 -0.234375 0.296875 -0.234375l3.21875 -0.28125q0.125 -1.15625 0.1875 -1.890625q0.0625 -0.734375 0.03125 -1.375q-0.03125 -0.640625 -0.078125 -1.34375q-0.046875 -0.703125 -0.078125 -1.828125q0 -0.21875 0.09375 -0.34375q0.09375 -0.125 0.234375 -0.1875q0.140625 -0.0625 0.3125 -0.09375q0.171875 -0.03125 0.265625 -0.03125q0.1875 0 0.390625 0.125q0.203125 0.125 0.359375 0.3125q0.15625 0.1875 0.25 0.390625q0.09375 0.203125 0.09375 0.390625l0.25 5.84375l2.6875 0.125q0.53125 -0.0625 0.984375 0.203125q0.453125 0.265625 0.484375 0.984375q-0.375 0.40625 -0.90625 0.484375q-0.53125 0.078125 -1.109375 0.0625q-0.578125 -0.015625 -1.140625 0q-0.5625 0.015625 -1.0 0.296875q0 0.1875 0.03125 1.03125q0.03125 0.84375 0.0625 2.0q0.03125 1.15625 0.078125 2.46875q0.046875 1.3125 0.078125 2.421875q0.03125 1.109375 0.046875 1.890625q0.015625 0.78125 0.015625 0.875q-0.71875 0.4375 -1.15625 -0.078125q-0.4375 -0.515625 -0.703125 -1.53125q-0.265625 -1.015625 -0.375 -2.375q-0.109375 -1.359375 -0.125 -2.6875q-0.015625 -1.328125 0.015625 -2.453125q0.03125 -1.125 0.09375 -1.625zm6.84375 5.46875q0.03125 -0.53125 0.3125 -1.21875q0.28125 -0.6875 0.875 -1.34375q0.59375 -0.65625 1.5 -1.171875q0.90625 -0.515625 2.140625 -0.734375q1.234375 -0.21875 2.8125 -0.03125q1.578125 0.1875 3.515625 0.9375q0 -0.03125 0 -0.3125l-0.03125 -0.28125q0 -0.8125 -0.46875 -1.65625q-0.46875 -0.84375 -1.203125 -1.515625q-0.734375 -0.671875 -1.578125 -1.09375q-0.84375 -0.421875 -1.625 -0.421875q-0.3125 0 -0.546875 0.09375q-0.234375 0.09375 -0.453125 0.234375q-0.21875 0.140625 -0.421875 0.25q-0.203125 0.109375 -0.484375 0.109375q-0.0625 0 -0.0625 -0.03125q-0.03125 -0.03125 -0.0625 -0.0625q-0.0625 -0.0625 -0.171875 -0.15625q-0.109375 -0.09375 -0.109375 -0.125q0 -0.5625 0.203125 -0.96875q0.203125 -0.40625 0.5625 -0.65625q0.359375 -0.25 0.8125 -0.390625q0.453125 -0.140625 0.953125 -0.140625q1.25 0.125 2.390625 0.765625q1.140625 0.640625 2.09375 1.609375q0.953125 0.96875 1.671875 2.234375q0.71875 1.265625 1.203125 2.625q0.484375 1.359375 0.640625 2.734375q0.1875 1.4375 0.03125 2.6875q-0.03125 0 -0.1875 -0.015625q-0.15625 -0.015625 -0.34375 -0.03125q-0.1875 -0.015625 -0.3125 -0.046875l-0.15625 -0.03125q-0.65625 -1.46875 -1.46875 -2.375q-0.8125 -0.90625 -1.609375 -1.421875q-0.796875 -0.515625 -1.484375 -0.71875q-0.6875 -0.203125 -1.125 -0.296875q-0.46875 0 -1.109375 0.0625q-0.640625 0.0625 -1.328125 0.21875q-0.6875 0.15625 -1.390625 0.421875q-0.703125 0.265625 -1.25 0.640625q-0.546875 0.375 -0.875 0.890625q-0.328125 0.515625 -0.328125 1.203125q0 0.75 0.59375 1.265625q0.59375 0.515625 1.4375 0.84375q0.84375 0.328125 1.71875 0.453125q0.875 0.125 1.40625 0.125q0.875 0 1.71875 -0.09375q0.84375 -0.09375 1.671875 -0.21875q0.828125 -0.125 1.640625 -0.21875q0.8125 -0.09375 1.625 -0.09375q0.0625 0 0.21875 0q0.15625 0 0.328125 0.015625q0.171875 0.015625 0.3125 0.015625q0.140625 0 0.203125 0q0.25 0.09375 0.28125 0.28125q0.03125 0.1875 0.03125 0.375q0 0.1875 -0.390625 0.40625q-0.390625 0.21875 -1.015625 0.4375q-0.625 0.21875 -1.390625 0.453125q-0.765625 0.234375 -1.46875 0.390625q-0.703125 0.15625 -1.3125 0.265625q-0.609375 0.109375 -0.859375 0.109375q-1.3125 0 -2.78125 -0.21875q-1.46875 -0.21875 -2.6875 -0.796875q-1.21875 -0.578125 -2.015625 -1.609375q-0.796875 -1.03125 -0.796875 -2.65625zm11.40625 13.96875q-0.125 -0.4375 0.015625 -0.78125q0.140625 -0.34375 0.390625 -0.5625q0.25 -0.21875 0.546875 -0.28125q0.296875 -0.0625 0.5 0.078125q0.203125 0.140625 0.25 0.515625q0.046875 0.375 -0.203125 1.03125q0 0.6875 0.578125 1.34375q0.578125 0.65625 1.5 1.1875q0.921875 0.53125 2.015625 0.96875q1.09375 0.4375 2.125 0.75q1.03125 0.3125 1.84375 0.46875q0.75 0.15625 1.125 0.15625q0.78125 0 1.328125 -0.40625q0.546875 -0.40625 0.9375 -1.0625q0.390625 -0.65625 0.625 -1.484375q0.234375 -0.828125 0.359375 -1.65625q0.125 -0.828125 0.15625 -1.609375q0.03125 -0.78125 0.03125 -1.3125q0 -0.25 -0.046875 -0.921875q-0.046875 -0.671875 -0.140625 -1.546875q-0.09375 -0.875 -0.21875 -1.8125q-0.125 -0.9375 -0.28125 -1.75q-0.15625 -0.8125 -0.328125 -1.3125q-0.171875 -0.5 -0.359375 -0.5q-0.3125 0 -0.734375 0.1875q-0.421875 0.1875 -0.875 0.40625q-0.453125 0.21875 -0.921875 0.40625q-0.46875 0.1875 -0.90625 0.1875q-0.875 0 -1.71875 -0.375q-0.84375 -0.375 -1.453125 -0.96875q-0.609375 -0.59375 -0.984375 -1.40625q-0.375 -0.8125 -0.375 -1.6875q0 -1.375 0.546875 -2.8125q0.546875 -1.4375 1.5 -2.625q0.953125 -1.1875 2.25 -1.9375q1.296875 -0.75 2.765625 -0.75q1.125 0.3125 1.828125 1.421875q0.703125 1.109375 1.09375 2.734375q0.390625 1.625 0.5625 3.609375q0.171875 1.984375 0.234375 4.046875q0.0625 2.0625 0.109375 4.046875q0.046875 1.984375 0.234375 3.609375q0 0.71875 -0.078125 1.703125q-0.078125 0.984375 -0.265625 2.015625q-0.1875 1.03125 -0.515625 2.046875q-0.328125 1.015625 -0.859375 1.8125q-0.53125 0.796875 -1.296875 1.28125q-0.765625 0.484375 -1.765625 0.484375q-0.8125 0 -1.953125 -0.1875q-1.140625 -0.1875 -2.375 -0.59375q-1.234375 -0.40625 -2.453125 -1.0q-1.21875 -0.59375 -2.1875 -1.359375q-0.96875 -0.765625 -1.5625 -1.71875q-0.59375 -0.953125 -0.59375 -2.078125zm6.5625 -14.28125q0 0.5625 0.171875 1.078125q0.171875 0.515625 0.5 0.921875q0.328125 0.40625 0.8125 0.640625q0.484375 0.234375 1.078125 0.234375q1.59375 0 2.421875 -0.625q0.828125 -0.625 1.140625 -1.5625q0.3125 -0.9375 0.3125 -2.0q-0.03125 -1.09375 -0.09375 -1.96875q0 -0.4375 -0.0625 -0.875q-0.0625 -0.4375 -0.25 -0.8125q-0.1875 -0.375 -0.515625 -0.59375q-0.328125 -0.21875 -0.828125 -0.21875q-1.03125 0 -1.90625 0.578125q-0.875 0.578125 -1.484375 1.4375q-0.609375 0.859375 -0.953125 1.875q-0.34375 1.015625 -0.34375 1.890625zm9.9375 -0.78125q0 -1.71875 0.75 -3.0q0.75 -1.28125 1.96875 -2.15625q1.21875 -0.875 2.734375 -1.296875q1.515625 -0.421875 3.046875 -0.421875q0.8125 0 1.515625 0.296875q0.703125 0.296875 1.34375 0.8125q0.640625 0.515625 1.140625 1.1875q0.5 0.671875 0.859375 1.390625q0.359375 0.71875 0.546875 1.453125q0.1875 0.734375 0.1875 1.421875q0 1.59375 -0.625 2.84375q-0.625 1.25 -1.6875 2.109375q-1.0625 0.859375 -2.40625 1.3125q-1.34375 0.453125 -2.75 0.453125q-1.4375 0 -2.640625 -0.453125q-1.203125 -0.453125 -2.09375 -1.265625q-0.890625 -0.8125 -1.390625 -2.015625q-0.5 -1.203125 -0.5 -2.671875zm1.53125 -0.25q0 0.96875 0.359375 1.859375q0.359375 0.890625 1.0 1.546875q0.640625 0.65625 1.515625 1.046875q0.875 0.390625 1.875 0.390625q0.53125 0.0625 1.296875 -0.171875q0.765625 -0.234375 1.53125 -0.6875q0.765625 -0.453125 1.46875 -1.09375q0.703125 -0.640625 1.171875 -1.40625q0.46875 -0.765625 0.578125 -1.59375q0.109375 -0.828125 -0.28125 -1.65625q-0.390625 -0.828125 -1.421875 -1.59375q-1.03125 -0.765625 -2.84375 -1.421875q-1.03125 0 -2.140625 0.296875q-1.109375 0.296875 -2.015625 0.890625q-0.90625 0.59375 -1.5 1.5q-0.59375 0.90625 -0.59375 2.09375zm14.375 -5.5625q0 -0.28125 0.203125 -0.359375q0.203125 -0.078125 0.453125 -0.078125q0.1875 0 0.265625 0.09375q0.078125 0.09375 0.109375 0.21875q0.03125 0.125 0.09375 0.234375q0.0625 0.109375 0.21875 0.109375q0.4375 0 1.0625 -0.34375q0.625 -0.34375 1.359375 -0.75q0.734375 -0.40625 1.5625 -0.75q0.828125 -0.34375 1.640625 -0.34375q1.0625 0 1.953125 0.546875q0.890625 0.546875 1.59375 1.453125q0.703125 0.90625 1.203125 2.03125q0.5 1.125 0.84375 2.296875q0.34375 1.171875 0.5 2.28125q0.15625 1.109375 0.15625 1.921875q0 0.28125 -0.046875 0.84375q-0.046875 0.5625 -0.15625 1.125q-0.109375 0.5625 -0.359375 0.984375q-0.25 0.421875 -0.625 0.421875q-0.0625 0 -0.21875 -0.015625q-0.15625 -0.015625 -0.3125 -0.0625q-0.15625 -0.046875 -0.265625 -0.109375q-0.109375 -0.0625 -0.109375 -0.1875q0.28125 -2.40625 0 -4.515625q-0.28125 -2.109375 -0.90625 -3.703125q-0.625 -1.59375 -1.53125 -2.53125q-0.90625 -0.9375 -1.9375 -0.9375q-0.96875 0 -1.8125 0.3125q-0.84375 0.3125 -1.46875 0.90625q-0.625 0.59375 -0.984375 1.4375q-0.359375 0.84375 -0.359375 1.84375q0 1.0 0.1875 1.984375q0.1875 0.984375 0.421875 1.96875q0.234375 0.984375 0.421875 1.984375q0.1875 1.0 0.1875 2.0q-0.875 0 -1.46875 -0.71875q-0.59375 -0.71875 -0.953125 -1.84375q-0.359375 -1.125 -0.5625 -2.53125q-0.203125 -1.40625 -0.28125 -2.765625q-0.078125 -1.359375 -0.078125 -2.5625q0 -1.203125 0 -1.890625z" fill-rule="nonzero"/></g></svg>